<svg xmlns="http://www.w3.org/2000/svg" width="36" height="36" viewBox="0 0 9.525 9.525"><path d="M6.007 7.225A3.918 3.918 0 0 1 1.15 1.14 3.918 3.918 0 0 1 7.23 6.007c.9.721 2.157 1.83 2.28 2.495.077.424-.593 1.1-1.016 1.016-.615-.122-1.747-1.392-2.486-2.292M2.023 2.014a2.684 2.684 0 0 0 3.792 3.794 2.684 2.684 0 0 0-3.792-3.793m1.093 3.137a3 3 0 0 1-.467-.126 1.1 1.1 0 0 1-.502-.34.36.36 0 0 1 .003-.408c.083-.112.22-.11.304.002q.071.091.211.153c.098-.67.047-1.651-.065-2.408a.08.08 0 0 1 .011-.057q.014-.025.039-.025h2.542q.023 0 .038.024.014.023.012.055c-.082.682-.143 1.577-.107 2.172q.008.145.025.26c.097-.042.175-.086.217-.15.077-.12.214-.133.302-.03.091.105.101.287.024.407a.93.93 0 0 1-.422.325c-.157.07-.349.123-.562.159-.023.267-.104.457-.172.666-.007.023-.025.035-.043.03-.017-.004-.03-.027-.03-.052-.001-.195 0-.387-.028-.61l-.037.004c-.036.17-.093.312-.142.465-.007.021-.026.035-.043.03-.019-.005-.032-.026-.032-.05 0-.14 0-.28-.009-.43l-.032.001c-.035.138-.083.26-.125.389-.007.023-.025.035-.043.03s-.03-.026-.03-.05q.001-.178-.006-.365h-.069q-.007.188-.005.367c0 .025-.013.047-.032.05q-.029.005-.043-.03c-.042-.131-.09-.256-.124-.395l-.028-.002c-.012.154-.01.297-.012.443 0 .023-.012.044-.03.048s-.036-.008-.043-.03c-.051-.157-.11-.304-.146-.48l-.017-.003c-.033.234-.03.435-.031.639 0 .023-.014.045-.032.05q-.028.005-.043-.03c-.07-.218-.155-.414-.174-.7Z" style="clip-rule:evenodd;fill:#d4af37;fill-opacity:1;fill-rule:evenodd;stroke-width:.203749;stroke-linejoin:round;stroke-miterlimit:2"/></svg>